<?xml version="1.0" encoding="UTF-8" standalone="no"?>
<!-- Created with Inkscape (http://www.inkscape.org/) -->

<svg
   width="1024"
   height="1024"
   viewBox="0 0 1024 1024"
   version="1.1"
   id="svg1"
   xml:space="preserve"
   inkscape:version="1.3.2 (091e20e, 2023-11-25)"
   sodipodi:docname="zed.svg"
   inkscape:export-filename="zed.png"
   inkscape:export-xdpi="96"
   inkscape:export-ydpi="96"
   xmlns:inkscape="http://www.inkscape.org/namespaces/inkscape"
   xmlns:sodipodi="http://sodipodi.sourceforge.net/DTD/sodipodi-0.dtd"
   xmlns="http://www.w3.org/2000/svg"
   xmlns:svg="http://www.w3.org/2000/svg"><sodipodi:namedview
     id="namedview1"
     pagecolor="#000000"
     bordercolor="#000000"
     borderopacity="0.25"
     inkscape:showpageshadow="2"
     inkscape:pageopacity="0.0"
     inkscape:pagecheckerboard="0"
     inkscape:deskcolor="#d1d1d1"
     inkscape:document-units="px"
     showborder="false"
     inkscape:zoom="0.224743"
     inkscape:cx="215.80205"
     inkscape:cy="418.25552"
     inkscape:window-width="1312"
     inkscape:window-height="449"
     inkscape:window-x="0"
     inkscape:window-y="25"
     inkscape:window-maximized="0"
     inkscape:current-layer="layer1" /><defs
     id="defs1" /><g
     inkscape:label="Layer 1"
     inkscape:groupmode="layer"
     id="layer1"><path
       id="path44"
       style="fill:#ffffff;fill-opacity:1;stroke:none;stroke-width:1.24242"
       d="M 238.67056,101.99996 A 136.66622,136.66622 0 0 0 102,238.67067 v 273.33327 273.32541 a 136.66622,136.66622 0 0 0 136.67056,136.67069 h 273.3335 273.32538 A 136.66622,136.66622 0 0 0 922,785.32935 V 512.00394 238.67067 A 136.66622,136.66622 0 0 0 785.32944,101.99996 H 512.00406 Z"
       inkscape:label="overlay" /><path
       d="m 284.86908,267.39773 a 17.471592,17.471592 0 0 0 -17.47179,17.47163 V 669.24443 H 232.45455 V 284.86936 a 52.414777,52.414777 0 0 1 52.41453,-52.41481 H 752.9911 c 23.34267,0 35.03695,28.23409 18.52041,44.72727 L 483.20643,565.53295 h 81.20813 V 529.4716 h 34.94365 v 44.77384 a 26.207388,26.207388 0 0 1 -26.20768,26.20738 H 448.26367 l -60.05611,60.0557 h 272.3011 V 442.11364 H 695.4514 V 660.50852 A 34.943185,34.943185 0 0 1 660.50866,695.4517 H 353.24105 l -61.10374,61.15061 H 739.1309 a 17.471592,17.471592 0 0 0 17.47098,-17.47163 V 354.75574 h 34.94357 V 739.13068 A 52.414777,52.414777 0 0 1 739.1309,791.54545 H 271.00805 c -23.34182,0 -35.0361,-28.23406 -18.51959,-44.72727 L 539.72127,459.58526 h -80.13583 v 34.94319 h -34.94356 v -43.67902 a 26.207388,26.207388 0 0 1 26.20769,-26.20736 h 123.7915 L 635.7924,363.49146 H 363.49141 v 218.3949 H 328.54866 V 363.49147 a 34.943185,34.943185 0 0 1 34.94275,-34.94317 h 307.26662 l 61.10471,-61.15057 z"
       id="path1"
       style="stroke-width:23.2956" /></g></svg>
